<?xml version="1.0" encoding="UTF-8"?><svg xmlns="http://www.w3.org/2000/svg" xmlns:xlink="http://www.w3.org/1999/xlink" version="1.1" id="Layer_1" x="0px" y="0px" viewBox="0 0 24 24" xml:space="preserve"><path id="base_color_5_" fill="#F47920" d="M16.5 1c-1.737 0-3.37.676-4.596 1.904l-9 9A6.46 6.46 0 0 0 1 16.5C1 20.084 3.916 23 7.5 23c1.737 0 3.37-.676 4.596-1.904l9-9A6.46 6.46 0 0 0 23 7.5C23 3.916 20.084 1 16.5 1z"/><path id="light_foil_35_" opacity="0.8" fill="#FFF" d="M16.596 16.596L7.404 7.404l-4.5 4.5A6.46 6.46 0 0 0 1 16.5C1 20.084 3.916 23 7.5 23c1.737 0 3.37-.676 4.596-1.904l4.5-4.5"/><metadata><rdf:RDF xmlns:rdf="http://www.w3.org/1999/02/22-rdf-syntax-ns#" xmlns:rdfs="http://www.w3.org/2000/01/rdf-schema#" xmlns:dc="http://purl.org/dc/elements/1.1/"><rdf:Description about="https://iconscout.com/legal#licenses" dc:title="pill,medicine,drug,pharmacy" dc:description="pill,medicine,drug,pharmacy" dc:publisher="Iconscout" dc:date="2017-10-16" dc:format="image/svg+xml" dc:language="en"><dc:creator><rdf:Bag><rdf:li>Those Icons</rdf:li></rdf:Bag></dc:creator></rdf:Description></rdf:RDF></metadata></svg>